<svg width="30" height="30" viewBox="0 0 30 30" fill="none" xmlns="http://www.w3.org/2000/svg">
<circle cx="15" cy="15" r="14" stroke="#353535" stroke-width="2"/>
<path fill-rule="evenodd" clip-rule="evenodd" d="M9 15C9 14.8106 9.07661 14.6289 9.21299 14.495C9.34936 14.3611 9.53433 14.2858 9.72719 14.2858H18.1524L15.0299 11.2207C14.8933 11.0866 14.8166 10.9047 14.8166 10.7151C14.8166 10.5254 14.8933 10.3435 15.0299 10.2094C15.1664 10.0753 15.3516 10 15.5447 10C15.7378 10 15.923 10.0753 16.0596 10.2094L20.4227 14.4944C20.4904 14.5607 20.5442 14.6395 20.5808 14.7263C20.6175 14.8131 20.6364 14.9061 20.6364 15C20.6364 15.0939 20.6175 15.1869 20.5808 15.2737C20.5442 15.3605 20.4904 15.4393 20.4227 15.5056L16.0596 19.7906C15.923 19.9247 15.7378 20 15.5447 20C15.3516 20 15.1664 19.9247 15.0299 19.7906C14.8933 19.6565 14.8166 19.4746 14.8166 19.2849C14.8166 19.0953 14.8933 18.9134 15.0299 18.7793L18.1524 15.7142H9.72719C9.53433 15.7142 9.34936 15.6389 9.21299 15.505C9.07661 15.3711 9 15.1894 9 15Z" fill="black"/>
</svg>
