<svg width="63" height="72" viewBox="0 0 63 72" fill="none" xmlns="http://www.w3.org/2000/svg">
    <g class="anim-none">
        <path d="M16.0078 22H5.00781C2.79867 22 1.00781 23.7909 1.00781 26V60C1.00781 62.2091 2.79867 64 5.00781 64H57.0078C59.217 64 61.0078 62.2091 61.0078 60V26C61.0078 23.7909 59.217 22 57.0078 22H53.5078H46.0078" stroke="#033FFF" stroke-width="2" stroke-linecap="round"/>
        <path d="M11.0078 26H10.0078C7.79867 26 6.00781 27.7909 6.00781 30V51C6.00781 53.2091 7.79867 55 10.0078 55H52.0078C54.217 55 56.0078 53.2091 56.0078 51V30C56.0078 27.7909 54.217 26 52.0078 26H51.0078" stroke="#033FFF" stroke-width="2" stroke-linecap="round"/>
        <rect x="25.0078" y="58" width="12" height="2" rx="1" fill="#033FFF"/>
        <mask id="path-4-inside-1_257:4726" fill="white">
            <path d="M14.0078 70C14.0078 67.7909 15.7987 66 18.0078 66H44.0078C46.217 66 48.0078 67.7909 48.0078 70V71C48.0078 71.5523 47.5601 72 47.0078 72H15.0078C14.4555 72 14.0078 71.5523 14.0078 71V70Z"/>
        </mask>
        <path d="M14.0078 70C14.0078 67.7909 15.7987 66 18.0078 66H44.0078C46.217 66 48.0078 67.7909 48.0078 70V71C48.0078 71.5523 47.5601 72 47.0078 72H15.0078C14.4555 72 14.0078 71.5523 14.0078 71V70Z" stroke="#033FFF" stroke-width="4" mask="url(#path-4-inside-1_257:4726)"/>
        <path d="M21.5078 64L20.0078 67" stroke="#033FFF" stroke-width="2"/>
        <path d="M41.0078 64L42.5078 67" stroke="#033FFF" stroke-width="2"/>
    </g>
    <g class="anim">
        <path d="M43.0542 4.70048C46.2819 7.29644 46.794 12.0174 44.198 15.2451L34.7972 26.9336L23.1087 17.5328L32.5095 5.84433C35.1055 2.61663 39.8265 2.10451 43.0542 4.70048Z" fill="#033FFF"/>
        <path d="M14.8518 39.7659C18.0795 42.3619 22.8005 41.8497 25.3964 38.6221L34.7972 26.9336L23.1087 17.5327L13.7079 29.2212C11.112 32.4489 11.6241 37.1699 14.8518 39.7659Z" fill="#4A9FF5"/>
        <path fill-rule="evenodd" clip-rule="evenodd" d="M48.7354 42.9785C50.149 41.3888 51.0078 39.2947 51.0078 37C51.0078 32.0294 46.9784 28 42.0078 28C39.7131 28 37.619 28.8588 36.0294 30.2725L48.7354 42.9785ZM48.0306 43.6879C46.4356 45.1251 44.3239 46 42.0078 46C37.0372 46 33.0078 41.9706 33.0078 37C33.0078 34.6839 33.8827 32.5722 35.3199 30.9772L48.0306 43.6879Z" fill="#033FFF"/>
    </g>
</svg>
