<svg width="62" height="63" viewBox="0 0 62 63" fill="none" xmlns="http://www.w3.org/2000/svg">
    <g class="anim">
        <path d="M36.0924 5.24855C39.4444 7.35267 41.3438 12.4861 41.9739 14.8522C42.2575 16.3501 40.1532 16.8008 39.2428 16.94C38.4726 17.0792 36.8902 17.0652 36.7222 15.8961C36.5121 14.4347 36.1659 13.2185 33.9915 10.6767C32.6628 9.12351 30.2843 7.75385 28.1104 7.75385V9.00651C28.1104 10.0086 26.7414 10.0868 26.2195 9.63283C25.0993 8.65855 22.6069 6.5012 21.5987 5.6661C20.5904 4.831 21.0418 4.44994 21.5987 3.99589L26.64 0.23794C27.3121 -0.263122 28.1104 0.0656476 28.1104 0.864266V2.3257C30.2843 2.3257 32.8996 3.24431 36.0924 5.24855Z" fill="#4A9FF5"/>
        <path d="M18.9076 23.4427C15.5556 21.2148 13.6562 15.7794 13.0261 13.2741C12.7425 11.6881 14.8468 11.2109 15.7572 11.0636C16.5274 10.9162 18.1098 10.9309 18.2778 12.1688C18.4879 13.7162 18.8341 15.004 21.0085 17.6952C22.3372 19.3398 24.7157 20.79 26.8896 20.79L26.8896 19.4637C26.8896 18.4026 28.2586 18.3198 28.7805 18.8005C29.9007 19.8321 32.3931 22.1164 33.4013 23.0006C34.4096 23.8848 33.9582 24.2883 33.4013 24.7691L28.36 28.7481C27.6879 29.2786 26.8896 28.9305 26.8896 28.0849L26.8896 26.5375C24.7157 26.5375 22.1004 25.5649 18.9076 23.4427Z" fill="#4A9FF5"/>
    </g>
    <g class="anim-none">
        <path d="M16 20H5C2.79086 20 1 21.7909 1 24V58C1 60.2091 2.79086 62 5 62H57C59.2091 62 61 60.2091 61 58V24C61 21.7909 59.2091 20 57 20H53.5H46" stroke="#033FFF" stroke-width="2" stroke-linecap="round"/>
        <path d="M12.6 24L12 24C9.79086 24 8 25.7909 8 28L8 54C8 56.2091 9.79086 58 12 58L50 58C52.2091 58 54 56.2091 54 54L54 28C54 25.7909 52.2091 24 50 24L49.4 24" stroke="#033FFF" stroke-width="2" stroke-linecap="round"/>
        <rect x="4.5293" y="37" width="9" height="1.7647" rx="0.882352" transform="rotate(90 4.5293 37)" fill="#033FFF"/>
        <rect x="58.647" y="40" width="3" height="3" rx="1.5" transform="rotate(90 58.647 40)" fill="#033FFF"/>
        <rect x="13" y="33" width="16" height="2" fill="#4A9FF5"/>
        <rect x="13" y="37" width="12" height="2" fill="#4A9FF5"/>
        <rect x="13" y="41" width="14" height="2" fill="#4A9FF5"/>
    </g>
</svg>