<svg width="62" height="71" viewBox="0 0 62 71" fill="none" xmlns="http://www.w3.org/2000/svg">
    <g class="anim-none">
        <path d="M9 25V25C7.34315 25 6 26.3431 6 28V50C6 52.2091 7.79086 54 10 54H52C54.2091 54 56 52.2091 56 50V28C56 26.3431 54.6569 25 53 25V25" stroke="#033FFF" stroke-width="2" stroke-linecap="round"/>
        <path d="M9 21H5C2.79086 21 1 22.7909 1 25V59C1 61.2091 2.79086 63 5 63H57C59.2091 63 61 61.2091 61 59V25C61 22.7909 59.2091 21 57 21H53.5H53" stroke="#033FFF" stroke-width="2" stroke-linecap="round"/>
        <rect x="25" y="57" width="12" height="2" rx="1" fill="#033FFF"/>
        <mask id="path-4-inside-1_364:3045" fill="white">
            <path d="M14 69C14 66.7909 15.7909 65 18 65H44C46.2091 65 48 66.7909 48 69V70C48 70.5523 47.5523 71 47 71H15C14.4477 71 14 70.5523 14 70V69Z"/>
        </mask>
        <path d="M21.5 63L20 66" stroke="#033FFF" stroke-width="2"/>
        <path d="M36 63L37.5 66" stroke="#033FFF" stroke-width="2"/>
        <path d="M14 69C14 66.7909 15.7909 65 18 65H44C46.2091 65 48 66.7909 48 69V70C48 70.5523 47.5523 71 47 71H15C14.4477 71 14 70.5523 14 70V69Z" stroke="#033FFF" stroke-width="4" mask="url(#path-4-inside-1_364:3045)"/>
    </g>
    <g class="anim">
        <path d="M39.9884 32.63C41.0143 33.5301 41.1894 35.1503 40.3795 36.2488L37.364 40.339L33.6489 37.0794L36.6644 32.9892C37.4743 31.8907 38.9625 31.7299 39.9884 32.63V32.63Z" fill="#033FFF"/>
        <path d="M31.0238 44.7887C32.0497 45.6888 33.5379 45.528 34.3478 44.4294L37.3633 40.3392L33.6482 37.0796L30.6327 41.1698C29.8228 42.2684 29.9979 43.8886 31.0238 44.7887V44.7887Z" fill="#4A9FF5"/>
        <path fill-rule="evenodd" clip-rule="evenodd" d="M40.7824 44.6711C41.3583 43.9646 41.7081 43.034 41.7081 42.0142C41.7081 39.805 40.0665 38.0142 38.0414 38.0142C37.1066 38.0142 36.2535 38.3958 35.6059 39.024L40.7824 44.6711ZM40.4952 44.9865C39.8454 45.6253 38.9851 46.0142 38.0414 46.0142C36.0164 46.0142 34.3748 44.2233 34.3748 42.0142C34.3748 40.9847 34.7312 40.0462 35.3168 39.3373L40.4952 44.9865Z" fill="#033FFF"/>
        <path d="M10 1H52V54H10V1Z" stroke="#4A9FF5" stroke-width="2"/>
        <ellipse cx="41.9999" cy="5" rx="0.916667" ry="1" fill="#033FFF"/>
        <ellipse cx="44.7499" cy="5" rx="0.916667" ry="1" fill="#033FFF"/>
        <ellipse cx="47.4999" cy="5" rx="0.916667" ry="1" fill="#033FFF"/>
        <rect x="29.1667" y="8" width="19.25" height="2" fill="#4A9FF5"/>
        <rect x="29.1667" y="12" width="13.75" height="2" fill="#4A9FF5"/>
        <rect x="29.1667" y="16" width="17.4167" height="2" fill="#4A9FF5"/>
        <rect x="29.1667" y="20" width="19.25" height="2" fill="#4A9FF5"/>
    </g>
</svg>