<svg width="66" height="70" viewBox="0 0 66 70" fill="none" xmlns="http://www.w3.org/2000/svg">
    <g class="anim">
        <path fill-rule="evenodd" clip-rule="evenodd" d="M36.2 26C35.0954 26 34.2 26.8954 34.2 28V30.1198C33.4235 30.3394 32.6844 30.6481 31.9945 31.0341L30.4951 29.5348C29.7141 28.7537 28.4477 28.7537 27.6667 29.5348L26.5353 30.6661C25.7543 31.4472 25.7543 32.7135 26.5353 33.4946L28.0346 34.9938C27.6484 35.684 27.3395 36.4233 27.1199 37.2H25C23.8954 37.2 23 38.0954 23 39.2V40.8C23 41.9046 23.8954 42.8 25 42.8H27.1199C27.3396 43.5768 27.6484 44.3162 28.0347 45.0064L26.5357 46.5054C25.7547 47.2864 25.7547 48.5527 26.5357 49.3338L27.6671 50.4652C28.4481 51.2462 29.7145 51.2462 30.4955 50.4652L31.9947 48.966C32.6846 49.3519 33.4236 49.6606 34.2 49.8802V52C34.2 53.1046 35.0954 54 36.1999 54H37.8C38.9045 54 39.8 53.1046 39.8 52V49.8802C40.5767 49.6605 41.3161 49.3517 42.0063 48.9655L43.5059 50.4651C44.2869 51.2462 45.5532 51.2462 46.3343 50.4651L47.4657 49.3338C48.2467 48.5527 48.2467 47.2864 47.4657 46.5053L45.9659 45.0056C46.3519 44.3156 46.6606 43.5765 46.8803 42.8H49C50.1046 42.8 51 41.9046 51 40.8V39.2C51 38.0954 50.1046 37.2 49 37.2H46.8803C46.6607 36.4236 46.352 35.6845 45.966 34.9946L47.4661 33.4946C48.2471 32.7136 48.2471 31.4472 47.4661 30.6662L46.3347 29.5348C45.5537 28.7538 44.2873 28.7538 43.5063 29.5348L42.0065 31.0346C41.3162 30.6483 40.5768 30.3395 39.8 30.1198V28C39.8 26.8954 38.9045 26 37.8 26H36.2ZM36.9999 46.5333C40.6081 46.5333 43.5332 43.6083 43.5332 40C43.5332 36.3917 40.6081 33.4667 36.9999 33.4667C33.3916 33.4667 30.4666 36.3917 30.4666 40C30.4666 43.6083 33.3916 46.5333 36.9999 46.5333Z" fill="#4A9FF5"/>
        <path fill-rule="evenodd" clip-rule="evenodd" d="M54.4757 14.5767C53.4335 14.2109 52.292 14.7592 51.9262 15.8015L51.5166 16.9686C50.8838 16.9294 50.2555 16.966 49.6435 17.0726L49.1077 15.9572C48.6294 14.9616 47.4345 14.5422 46.4389 15.0205L46.0783 15.1937C45.0827 15.672 44.6633 16.8669 45.1416 17.8625L45.6774 18.9778C45.2115 19.3889 44.7901 19.8567 44.4251 20.3754L43.258 19.9658C42.2157 19.6 41.0743 20.1483 40.7085 21.1906L40.576 21.568C40.2102 22.6102 40.7586 23.7517 41.8008 24.1175L42.968 24.5271C42.9287 25.1602 42.9653 25.7887 43.072 26.4009L41.957 26.9366C40.9613 27.4149 40.5419 28.6098 41.0203 29.6054L41.1935 29.966C41.6718 30.9616 42.8667 31.381 43.8623 30.9027L44.9776 30.3669C45.3887 30.8326 45.8563 31.2537 46.3747 31.6186L45.9651 32.7857C45.5993 33.828 46.1476 34.9694 47.1899 35.3352L47.5673 35.4677C48.6095 35.8335 49.751 35.2851 50.1168 34.2429L50.5265 33.0757C51.1595 33.1149 51.788 33.0784 52.4001 32.9716L52.9361 34.0874C53.4144 35.083 54.6093 35.5024 55.605 35.0241L55.9655 34.8509C56.9611 34.3726 57.3805 33.1777 56.9022 32.1821L56.3661 31.0661C56.8318 30.6551 57.253 30.1875 57.6179 29.6689L58.785 30.0786C59.8273 30.4444 60.9687 29.8961 61.3345 28.8538L61.467 28.4764C61.8328 27.4342 61.2845 26.2927 60.2422 25.9269L59.075 25.5172C59.1142 24.8845 59.0777 24.2562 58.9711 23.6443L60.0871 23.1082C61.0828 22.6299 61.5021 21.435 61.0238 20.4394L60.8506 20.0788C60.3723 19.0832 59.1774 18.6638 58.1818 19.1421L57.066 19.6781C56.6548 19.2122 56.187 18.7908 55.6683 18.4258L56.0779 17.2586C56.4437 16.2164 55.8954 15.075 54.8531 14.7092L54.4757 14.5767ZM49.3215 29.8658C51.9966 30.8047 54.9263 29.3973 55.8652 26.7222C56.8041 24.0471 55.3967 21.1174 52.7216 20.1785C50.0465 19.2396 47.1168 20.6471 46.1779 23.3222C45.239 25.9972 46.6465 28.9269 49.3215 29.8658Z" fill="#033FFF"/>
    </g>
    <g class="anim-none">
        <path d="M43 18L43 5C43 2.79086 41.2091 1 39 1L5 0.999998C2.79086 0.999998 1 2.79086 1 4.99999L1 65C1 67.2091 2.79086 69 5 69L39 69C41.2091 69 43 67.2091 43 65L43 60.5L43 52" stroke="#033FFF" stroke-width="2" stroke-linecap="round"/>
        <path d="M39 12.4L39 11C39 8.79086 37.2091 7 35 7L9 7C6.79086 7 5 8.79086 5 11L5 57C5 59.2091 6.79086 61 9 61L35 61C37.2091 61 39 59.2091 39 57L39 55.6" stroke="#033FFF" stroke-width="2" stroke-linecap="round"/>
        <rect x="28" y="5" width="9" height="2" rx="1" transform="rotate(-180 28 5)" fill="#033FFF"/>
        <rect x="23" y="67" width="3" height="3" rx="1.5" transform="rotate(-180 23 67)" fill="#033FFF"/>
    </g>
</svg>
